<svg width="25" height="25" viewBox="0 0 25 25" fill="none" xmlns="http://www.w3.org/2000/svg">
<g clip-path="url(#clip0)">
<path d="M23.2838 1.71613C20.9956 -0.572156 17.2857 -0.572156 14.9974 1.71608L10.1002 6.61324C7.7333 8.98029 7.95244 12.7518 10.1002 14.8997C10.4599 15.2593 10.8579 15.5526 11.2781 15.7935L12.1719 14.8997C12.7581 14.3133 12.5518 13.6279 12.5412 13.1334C12.4126 13.0422 12.2874 12.9436 12.1719 12.828C11.0697 11.7259 11.0201 9.83658 12.1719 8.68483C12.3429 8.51378 16.9651 3.89156 17.0689 3.78776C18.2115 2.64523 20.0696 2.64523 21.2122 3.78776C22.3547 4.93029 22.3547 6.78844 21.2122 7.93097L17.9752 11.1679C18.0688 11.6859 18.6306 12.9127 18.3416 14.9365C18.3557 14.9227 18.3726 14.9137 18.3867 14.8997L23.2838 10.0026C25.572 7.71427 25.572 4.00441 23.2838 1.71613Z" fill="#9598DE"/>
<path d="M15.2796 9.72076C14.92 9.3611 14.522 9.06783 14.1019 8.82697L13.2081 9.72076C12.6217 10.307 12.8281 10.9924 12.8386 11.487C12.9674 11.5782 13.0925 11.6768 13.2081 11.7923C14.3103 12.8945 14.3598 14.7838 13.2081 15.9355C13.0366 16.1069 8.03156 21.112 7.93141 21.2122C6.78888 22.3547 4.93073 22.3547 3.7882 21.2122C2.64567 20.0696 2.64567 18.2115 3.7882 17.069L7.40475 13.4524C7.31115 12.9345 6.74933 11.7076 7.03834 9.6838C7.02423 9.69767 7.00724 9.7067 6.99318 9.72072L1.71657 14.9974C-0.571619 17.2857 -0.571619 20.9956 1.71657 23.2838C4.00485 25.572 7.71466 25.572 10.0029 23.2838L15.2796 18.0072C17.6027 15.6841 17.4757 11.9168 15.2796 9.72076Z" fill="#9598DE"/>
</g>
<defs>
<clipPath id="clip0">
<rect width="25" height="25" fill="white"/>
</clipPath>
</defs>
</svg>
