<svg width="45" height="45" viewBox="0 0 45 45" fill="none" xmlns="http://www.w3.org/2000/svg">
<path fill-rule="evenodd" clip-rule="evenodd" d="M22.5 1.79404C10.7764 1.79404 1.26984 11.2985 1.26984 23.0242C1.26984 32.4046 7.35292 40.3622 15.7883 43.1698C16.849 43.3667 17.2385 42.7092 17.2385 42.1485C17.2385 41.6422 17.2188 39.9699 17.2097 38.1959C11.3034 39.4801 10.0571 35.691 10.0571 35.691C9.0914 33.2371 7.69991 32.5846 7.69991 32.5846C5.77335 31.2669 7.84511 31.2943 7.84511 31.2943C9.97663 31.4438 11.0995 33.4821 11.0995 33.4821C12.993 36.727 16.066 35.7891 17.2775 35.247C17.4681 33.8748 18.0183 32.9379 18.6254 32.4077C13.9099 31.8716 8.95253 30.0509 8.95253 21.9161C8.95253 19.5982 9.78222 17.7043 11.1403 16.2172C10.9195 15.6829 10.1928 13.5236 11.3456 10.5993C11.3456 10.5993 13.128 10.0287 17.1851 12.7754C18.8789 12.3047 20.6954 12.0681 22.5 12.06C24.3035 12.0681 26.1211 12.304 27.8181 12.7747C31.8702 10.028 33.6505 10.5986 33.6505 10.5986C34.8061 13.5225 34.0794 15.6822 33.859 16.2165C35.2202 17.7036 36.0439 19.5975 36.0439 21.9154C36.0439 30.0695 31.0774 31.8646 26.35 32.3905C27.1118 33.0494 27.7903 34.3417 27.7903 36.322C27.7903 39.1627 27.7657 41.4489 27.7657 42.1481C27.7657 42.7131 28.1482 43.3751 29.224 43.1666C37.6544 40.3562 43.7305 32.4011 43.7305 23.0242C43.7301 11.2992 34.2246 1.79439 22.5 1.79439V1.79404Z" fill="#9598DE"/>
<path d="M9.31077 32.2756C9.26402 32.381 9.09808 32.4127 8.94691 32.3406C8.79222 32.2717 8.70609 32.1279 8.75601 32.0221C8.80171 31.9131 8.968 31.8832 9.12163 31.956C9.27632 32.0253 9.36421 32.1705 9.31042 32.2759L9.31077 32.2756ZM10.1707 33.235C10.0698 33.3289 9.87187 33.2853 9.73757 33.1366C9.59835 32.9889 9.57234 32.791 9.67534 32.6957C9.78011 32.6022 9.97206 32.6465 10.1113 32.7941C10.2498 32.9439 10.2772 33.1401 10.171 33.2353L10.1707 33.235ZM11.0081 34.4574C10.878 34.5481 10.665 34.4634 10.5335 34.2746C10.4034 34.0854 10.4034 33.8587 10.537 33.7683C10.6682 33.6776 10.878 33.7595 11.0116 33.9466C11.141 34.1382 11.141 34.3649 11.0081 34.457V34.4574ZM12.1546 35.639C12.0385 35.7673 11.7903 35.7328 11.6089 35.5581C11.4237 35.3869 11.372 35.1433 11.4884 35.0153C11.6065 34.8866 11.8557 34.9225 12.0382 35.0962C12.2235 35.267 12.2794 35.511 12.1553 35.6386L12.1546 35.639ZM13.7366 36.3249C13.6849 36.4912 13.4466 36.5668 13.2057 36.4957C12.9656 36.423 12.8085 36.2285 12.8577 36.0605C12.9069 35.8928 13.147 35.8144 13.3892 35.89C13.6294 35.9624 13.7865 36.1558 13.7366 36.3249ZM15.4744 36.4518C15.4803 36.6269 15.2764 36.7717 15.0244 36.7752C14.7702 36.7812 14.5645 36.6392 14.5621 36.4669C14.5621 36.2901 14.7617 36.147 15.0156 36.1421C15.2676 36.1375 15.4747 36.2781 15.4747 36.4514L15.4744 36.4518ZM17.0908 36.1769C17.1211 36.3474 16.9457 36.5228 16.695 36.5696C16.4489 36.6153 16.2204 36.5091 16.1887 36.34C16.1585 36.1649 16.3371 35.9895 16.5832 35.9441C16.8342 35.9009 17.0592 36.0039 17.0908 36.1772V36.1769Z" fill="#9598DE"/>
</svg>
