<svg width="45" height="45" viewBox="0 0 45 45" fill="none" xmlns="http://www.w3.org/2000/svg">
<path d="M40.7812 1.0547H4.21875C3.38917 1.04625 2.59013 1.36725 1.99694 1.94725C1.40376 2.52726 1.06489 3.31889 1.05469 4.14845V40.8586C1.06673 41.6869 1.40641 42.4768 1.9994 43.0553C2.59238 43.6337 3.39037 43.9538 4.21875 43.9453H40.7812C41.6109 43.9519 42.4094 43.6298 43.0023 43.0495C43.5951 42.4691 43.9342 41.6776 43.9453 40.8481V4.1379C43.9305 3.31078 43.5899 2.52292 42.9974 1.94558C42.4049 1.36824 41.6085 1.04808 40.7812 1.0547ZM13.7707 37.6172H7.40391V17.1317H13.7707V37.6172ZM10.6066 14.3402C9.8764 14.3409 9.16236 14.125 8.55485 13.7198C7.94734 13.3146 7.47365 12.7384 7.19372 12.0639C6.91379 11.3895 6.84018 10.6471 6.98222 9.93084C7.12426 9.21454 7.47555 8.55647 7.99166 8.03987C8.50778 7.52326 9.16551 7.17134 9.88167 7.02862C10.5978 6.8859 11.3402 6.9588 12.015 7.23809C12.6897 7.51738 13.2664 7.99051 13.6722 8.59764C14.0779 9.20476 14.2945 9.9186 14.2945 10.6488C14.2936 11.1342 14.197 11.6146 14.0102 12.0626C13.8234 12.5105 13.5501 12.9173 13.2059 13.2595C12.8617 13.6017 12.4534 13.8727 12.0044 14.0569C11.5554 14.2412 11.0744 14.3351 10.5891 14.3332L10.6066 14.3402ZM37.6172 37.6172H31.2504V27.6504C31.2504 25.2774 31.2082 22.2223 27.9422 22.2223C24.6762 22.2223 24.1207 24.8098 24.1207 27.4957V37.6172H17.7645V17.1317H23.8676V19.9442H23.952C24.8027 18.334 26.877 16.6359 29.9742 16.6359C36.4219 16.6219 37.6172 20.8652 37.6172 26.3672V37.6172Z" fill="#9598DE"/>
</svg>
