<svg width="360" height="58" viewBox="0 0 360 58" fill="none" xmlns="http://www.w3.org/2000/svg">
<rect width="61" height="58" fill="#444444"/>
<path d="M15.6406 31.0938V40H12.6406V17.25H21.0312C23.5208 17.25 25.4688 17.8854 26.875 19.1562C28.2917 20.4271 29 22.1094 29 24.2031C29 26.4115 28.3073 28.1146 26.9219 29.3125C25.5469 30.5 23.5729 31.0938 21 31.0938H15.6406ZM15.6406 28.6406H21.0312C22.6354 28.6406 23.8646 28.2656 24.7188 27.5156C25.5729 26.7552 26 25.6615 26 24.2344C26 22.8802 25.5729 21.7969 24.7188 20.9844C23.8646 20.1719 22.6927 19.75 21.2031 19.7188H15.6406V28.6406ZM40.3594 36.0156L46.8594 17.25H50.1406L41.7031 40H39.0469L30.625 17.25H33.8906L40.3594 36.0156Z" fill="#FAFAFA"/>
<path d="M85.7969 30.7344V40H83.875V17.25H91.625C93.9896 17.25 95.8542 17.8542 97.2188 19.0625C98.5938 20.2708 99.2812 21.9323 99.2812 24.0469C99.2812 26.1823 98.6198 27.8333 97.2969 29C95.9844 30.1562 94.0781 30.7344 91.5781 30.7344H85.7969ZM85.7969 29.1094H91.625C93.4896 29.1094 94.9115 28.6667 95.8906 27.7812C96.8698 26.8958 97.3594 25.6615 97.3594 24.0781C97.3594 22.5052 96.8698 21.2552 95.8906 20.3281C94.9219 19.3906 93.5417 18.9115 91.75 18.8906H85.7969V29.1094ZM113.641 40C113.453 39.4688 113.333 38.6823 113.281 37.6406C112.625 38.4948 111.786 39.1562 110.766 39.625C109.755 40.0833 108.682 40.3125 107.547 40.3125C105.922 40.3125 104.604 39.8594 103.594 38.9531C102.594 38.0469 102.094 36.901 102.094 35.5156C102.094 33.8698 102.776 32.5677 104.141 31.6094C105.516 30.651 107.427 30.1719 109.875 30.1719H113.266V28.25C113.266 27.0417 112.891 26.0938 112.141 25.4062C111.401 24.7083 110.318 24.3594 108.891 24.3594C107.589 24.3594 106.51 24.6927 105.656 25.3594C104.802 26.026 104.375 26.8281 104.375 27.7656L102.5 27.75C102.5 26.4062 103.125 25.2448 104.375 24.2656C105.625 23.276 107.161 22.7812 108.984 22.7812C110.87 22.7812 112.354 23.2552 113.438 24.2031C114.531 25.1406 115.094 26.4531 115.125 28.1406V36.1406C115.125 37.776 115.297 39 115.641 39.8125V40H113.641ZM107.766 38.6562C109.016 38.6562 110.13 38.3542 111.109 37.75C112.099 37.1458 112.818 36.3385 113.266 35.3281V31.6094H109.922C108.057 31.6302 106.599 31.974 105.547 32.6406C104.495 33.2969 103.969 34.2031 103.969 35.3594C103.969 36.3073 104.318 37.0938 105.016 37.7188C105.724 38.3438 106.641 38.6562 107.766 38.6562ZM133.734 31.7188C133.734 34.3542 133.151 36.4479 131.984 38C130.818 39.5417 129.25 40.3125 127.281 40.3125C124.927 40.3125 123.146 39.4375 121.938 37.6875L121.859 40H120.109V16H121.969V25.5469C123.156 23.7031 124.917 22.7812 127.25 22.7812C129.25 22.7812 130.828 23.5469 131.984 25.0781C133.151 26.599 133.734 28.7188 133.734 31.4375V31.7188ZM131.859 31.3906C131.859 29.1615 131.427 27.4427 130.562 26.2344C129.698 25.0156 128.479 24.4062 126.906 24.4062C125.708 24.4062 124.693 24.7031 123.859 25.2969C123.026 25.8802 122.396 26.7396 121.969 27.875V35.5C122.906 37.625 124.562 38.6875 126.938 38.6875C128.479 38.6875 129.682 38.0781 130.547 36.8594C131.422 35.6406 131.859 33.8177 131.859 31.3906ZM139.969 40H138.094V16H139.969V40ZM144.031 31.2969C144.031 29.6719 144.344 28.2083 144.969 26.9062C145.604 25.6042 146.495 24.5938 147.641 23.875C148.797 23.1458 150.104 22.7812 151.562 22.7812C153.812 22.7812 155.635 23.5729 157.031 25.1562C158.427 26.7292 159.125 28.8177 159.125 31.4219V31.8125C159.125 33.4479 158.807 34.9219 158.172 36.2344C157.547 37.5365 156.661 38.5417 155.516 39.25C154.37 39.9583 153.062 40.3125 151.594 40.3125C149.354 40.3125 147.531 39.526 146.125 37.9531C144.729 36.3698 144.031 34.276 144.031 31.6719V31.2969ZM145.906 31.8125C145.906 33.8333 146.427 35.4948 147.469 36.7969C148.521 38.0885 149.896 38.7344 151.594 38.7344C153.281 38.7344 154.646 38.0885 155.688 36.7969C156.74 35.4948 157.266 33.7812 157.266 31.6562V31.2969C157.266 30.0052 157.026 28.8229 156.547 27.75C156.068 26.6771 155.396 25.849 154.531 25.2656C153.667 24.6719 152.677 24.375 151.562 24.375C149.896 24.375 148.536 25.0312 147.484 26.3438C146.432 27.6458 145.906 29.3542 145.906 31.4688V31.8125ZM183.5 33.625H173.172L170.828 40H168.812L177.422 17.25H179.25L187.859 40H185.859L183.5 33.625ZM173.766 31.9844H182.891L178.328 19.5938L173.766 31.9844ZM190.609 38.875C190.609 38.5104 190.724 38.2031 190.953 37.9531C191.193 37.6927 191.521 37.5625 191.938 37.5625C192.354 37.5625 192.682 37.6927 192.922 37.9531C193.161 38.2031 193.281 38.5104 193.281 38.875C193.281 39.2396 193.161 39.5417 192.922 39.7812C192.682 40.0104 192.354 40.125 191.938 40.125C191.521 40.125 191.193 40.0104 190.953 39.7812C190.724 39.5417 190.609 39.2396 190.609 38.875ZM213.516 37.1875L213.641 37.6719L213.781 37.1875L220.938 17.25H223.047L214.578 40H212.734L204.266 17.25H206.359L213.516 37.1875ZM231.828 40.3125C230.391 40.3125 229.089 39.9583 227.922 39.25C226.766 38.5417 225.865 37.5573 225.219 36.2969C224.573 35.026 224.25 33.6042 224.25 32.0312V31.3594C224.25 29.7344 224.562 28.2708 225.188 26.9688C225.823 25.6667 226.703 24.6458 227.828 23.9062C228.953 23.1562 230.172 22.7812 231.484 22.7812C233.536 22.7812 235.161 23.4844 236.359 24.8906C237.568 26.2865 238.172 28.1979 238.172 30.625V31.6719H226.109V32.0312C226.109 33.9479 226.656 35.5469 227.75 36.8281C228.854 38.099 230.24 38.7344 231.906 38.7344C232.906 38.7344 233.786 38.5521 234.547 38.1875C235.318 37.8229 236.016 37.2396 236.641 36.4375L237.812 37.3281C236.438 39.3177 234.443 40.3125 231.828 40.3125ZM231.484 24.375C230.078 24.375 228.891 24.8906 227.922 25.9219C226.964 26.9531 226.38 28.3385 226.172 30.0781H236.312V29.875C236.26 28.25 235.797 26.9271 234.922 25.9062C234.047 24.8854 232.901 24.375 231.484 24.375ZM249.625 24.6875C249.229 24.6146 248.807 24.5781 248.359 24.5781C247.193 24.5781 246.203 24.9062 245.391 25.5625C244.589 26.2083 244.016 27.151 243.672 28.3906V40H241.812V23.0938H243.641L243.672 25.7812C244.661 23.7812 246.25 22.7812 248.438 22.7812C248.958 22.7812 249.37 22.849 249.672 22.9844L249.625 24.6875ZM251.531 31.3906C251.531 28.7656 252.115 26.6771 253.281 25.125C254.458 23.5625 256.052 22.7812 258.062 22.7812C260.344 22.7812 262.083 23.6823 263.281 25.4844V16H265.141V40H263.391L263.312 37.75C262.115 39.4583 260.354 40.3125 258.031 40.3125C256.083 40.3125 254.51 39.5312 253.312 37.9688C252.125 36.3958 251.531 34.276 251.531 31.6094V31.3906ZM253.422 31.7188C253.422 33.875 253.854 35.5781 254.719 36.8281C255.583 38.0677 256.802 38.6875 258.375 38.6875C260.677 38.6875 262.312 37.6719 263.281 35.6406V27.7031C262.312 25.5052 260.688 24.4062 258.406 24.4062C256.833 24.4062 255.609 25.026 254.734 26.2656C253.859 27.4948 253.422 29.3125 253.422 31.7188ZM276.609 40.3125C275.172 40.3125 273.87 39.9583 272.703 39.25C271.547 38.5417 270.646 37.5573 270 36.2969C269.354 35.026 269.031 33.6042 269.031 32.0312V31.3594C269.031 29.7344 269.344 28.2708 269.969 26.9688C270.604 25.6667 271.484 24.6458 272.609 23.9062C273.734 23.1562 274.953 22.7812 276.266 22.7812C278.318 22.7812 279.943 23.4844 281.141 24.8906C282.349 26.2865 282.953 28.1979 282.953 30.625V31.6719H270.891V32.0312C270.891 33.9479 271.438 35.5469 272.531 36.8281C273.635 38.099 275.021 38.7344 276.688 38.7344C277.688 38.7344 278.568 38.5521 279.328 38.1875C280.099 37.8229 280.797 37.2396 281.422 36.4375L282.594 37.3281C281.219 39.3177 279.224 40.3125 276.609 40.3125ZM276.266 24.375C274.859 24.375 273.672 24.8906 272.703 25.9219C271.745 26.9531 271.161 28.3385 270.953 30.0781H281.094V29.875C281.042 28.25 280.578 26.9271 279.703 25.9062C278.828 24.8854 277.682 24.375 276.266 24.375ZM292.844 38.7344C294.146 38.7344 295.234 38.3698 296.109 37.6406C296.995 36.901 297.474 35.9479 297.547 34.7812H299.344C299.292 35.8125 298.969 36.7552 298.375 37.6094C297.781 38.4531 296.99 39.1146 296 39.5938C295.021 40.0729 293.969 40.3125 292.844 40.3125C290.625 40.3125 288.865 39.5417 287.562 38C286.271 36.4583 285.625 34.3854 285.625 31.7812V31.2188C285.625 29.5521 285.917 28.0781 286.5 26.7969C287.083 25.5156 287.917 24.526 289 23.8281C290.094 23.1302 291.37 22.7812 292.828 22.7812C294.682 22.7812 296.208 23.3333 297.406 24.4375C298.615 25.5417 299.26 26.9948 299.344 28.7969H297.547C297.464 27.474 296.984 26.4062 296.109 25.5938C295.245 24.7812 294.151 24.375 292.828 24.375C291.141 24.375 289.828 24.9844 288.891 26.2031C287.964 27.4219 287.5 29.1302 287.5 31.3281V31.875C287.5 34.0312 287.964 35.7135 288.891 36.9219C289.828 38.1302 291.146 38.7344 292.844 38.7344ZM309.344 38.7344C310.646 38.7344 311.734 38.3698 312.609 37.6406C313.495 36.901 313.974 35.9479 314.047 34.7812H315.844C315.792 35.8125 315.469 36.7552 314.875 37.6094C314.281 38.4531 313.49 39.1146 312.5 39.5938C311.521 40.0729 310.469 40.3125 309.344 40.3125C307.125 40.3125 305.365 39.5417 304.062 38C302.771 36.4583 302.125 34.3854 302.125 31.7812V31.2188C302.125 29.5521 302.417 28.0781 303 26.7969C303.583 25.5156 304.417 24.526 305.5 23.8281C306.594 23.1302 307.87 22.7812 309.328 22.7812C311.182 22.7812 312.708 23.3333 313.906 24.4375C315.115 25.5417 315.76 26.9948 315.844 28.7969H314.047C313.964 27.474 313.484 26.4062 312.609 25.5938C311.745 24.7812 310.651 24.375 309.328 24.375C307.641 24.375 306.328 24.9844 305.391 26.2031C304.464 27.4219 304 29.1302 304 31.3281V31.875C304 34.0312 304.464 35.7135 305.391 36.9219C306.328 38.1302 307.646 38.7344 309.344 38.7344ZM321.453 25.9531C322.068 24.9427 322.854 24.1615 323.812 23.6094C324.771 23.0573 325.818 22.7812 326.953 22.7812C328.766 22.7812 330.115 23.2917 331 24.3125C331.885 25.3333 332.333 26.8646 332.344 28.9062V40H330.484V28.8906C330.474 27.3802 330.151 26.2552 329.516 25.5156C328.891 24.776 327.885 24.4062 326.5 24.4062C325.344 24.4062 324.318 24.7708 323.422 25.5C322.536 26.2188 321.88 27.1927 321.453 28.4219V40H319.594V16H321.453V25.9531ZM339.25 40H337.375V23.0938H339.25V40ZM337.047 18.2031C337.047 17.849 337.161 17.5521 337.391 17.3125C337.62 17.0625 337.932 16.9375 338.328 16.9375C338.724 16.9375 339.036 17.0625 339.266 17.3125C339.505 17.5521 339.625 17.849 339.625 18.2031C339.625 18.5573 339.505 18.8542 339.266 19.0938C339.036 19.3333 338.724 19.4531 338.328 19.4531C337.932 19.4531 337.62 19.3333 337.391 19.0938C337.161 18.8542 337.047 18.5573 337.047 18.2031ZM355.016 40C354.828 39.4688 354.708 38.6823 354.656 37.6406C354 38.4948 353.161 39.1562 352.141 39.625C351.13 40.0833 350.057 40.3125 348.922 40.3125C347.297 40.3125 345.979 39.8594 344.969 38.9531C343.969 38.0469 343.469 36.901 343.469 35.5156C343.469 33.8698 344.151 32.5677 345.516 31.6094C346.891 30.651 348.802 30.1719 351.25 30.1719H354.641V28.25C354.641 27.0417 354.266 26.0938 353.516 25.4062C352.776 24.7083 351.693 24.3594 350.266 24.3594C348.964 24.3594 347.885 24.6927 347.031 25.3594C346.177 26.026 345.75 26.8281 345.75 27.7656L343.875 27.75C343.875 26.4062 344.5 25.2448 345.75 24.2656C347 23.276 348.536 22.7812 350.359 22.7812C352.245 22.7812 353.729 23.2552 354.812 24.2031C355.906 25.1406 356.469 26.4531 356.5 28.1406V36.1406C356.5 37.776 356.672 39 357.016 39.8125V40H355.016ZM349.141 38.6562C350.391 38.6562 351.505 38.3542 352.484 37.75C353.474 37.1458 354.193 36.3385 354.641 35.3281V31.6094H351.297C349.432 31.6302 347.974 31.974 346.922 32.6406C345.87 33.2969 345.344 34.2031 345.344 35.3594C345.344 36.3073 345.693 37.0938 346.391 37.7188C347.099 38.3438 348.016 38.6562 349.141 38.6562Z" fill="#444444"/>
</svg>
